#!OML:ASF F:\VICON\USERDATA\INSTALL\rory3\rory3.ASF
:FULLY-SPECIFIED
:DEGREES
310
root -8.95156 12.3922 9.87251 7.335 -43.1035 -1.72004
lowerback 31.8245 5.21104 0.0114
upperback 10.4607 6.21269 2.07031
thorax -5.67783 2.74047 0.13083
lowerneck -11.6397 -5.49695 -15.4903
upperneck 32.3882 -5.9765 5.21592
head 13.59 -3.86836 3.82838
rclavicle -2.94201e-014 2.06736e-014
rhumerus 14.2038 15.1169 -82.9632
rradius 30.3172
rwrist 4.85412
rhand -23.1128 2.00024
rfingers 7.12502
rthumb 3.3342 -27.9534
lclavicle -2.94201e-014 2.06736e-014
lhumerus -25.1642 -49.4034 86.1628
lradius 79.6015
lwrist -15.2545
lhand -55.6432 31.3315
lfingers 7.12502
lthumb -27.9952 59.2636
rfemur -82.6805 -38.6767 37.0839
rtibia 113.285
rfoot -22.5291 6.02867
rtoes 3.1882
lfemur -74.9103 21.1788 -23.4729
ltibia 106.684
lfoot -25.6634 -7.28051
ltoes -14.7258
311
root -8.96251 12.232 9.89057 7.13595 -43.5 -1.9974
lowerback 32.4251 5.50302 0.20141
upperback 10.5733 6.62418 2.26023
thorax -5.82407 2.92258 0.0532956
lowerneck -11.3774 -5.63474 -15.8524
upperneck 32.1869 -6.16079 5.34574
head 13.4951 -3.96899 3.91253
rclavicle 4.92986e-014 -4.29375e-014
rhumerus 14.3963 14.7059 -82.9184
rradius 29.6711
rwrist 4.84064
rhand -24.5519 2.22257
rfingers 7.12502
rthumb 1.94432 -27.7483
lclavicle 4.92986e-014 -4.29375e-014
lhumerus -25.3027 -49.264 86.4683
lradius 80.2643
lwrist -15.5767
lhand -55.8048 31.6101
lfingers 7.12502
lthumb -28.1497 59.5169
rfemur -83.1499 -38.6849 37.1355
rtibia 114.76
rfoot -22.8226 6.05485
rtoes 2.77372
lfemur -75.4403 22.0142 -23.3405
ltibia 108.371
lfoot -26.278 -7.12424
ltoes -15.5387
312
root -8.97172 12.0685 9.90606 7.02162 -43.7546 -2.29985
lowerback 32.9647 5.67453 0.48614
upperback 10.7062 6.91002 2.39112
thorax -5.89722 3.04744 -0.0950625
lowerneck -11.3383 -5.74187 -16.0154
upperneck 32.05 -6.28572 5.38977
head 13.4557 -4.02996 3.93536
rclavicle -5.1684e-014 4.85035e-014
rhumerus 14.7105 14.3661 -82.9414
rradius 29.1606
rwrist 5.11363
rhand -26.0991 2.04485
rfingers 7.12502
rthumb 0.449984 -27.9344
lclavicle -5.1684e-014 4.85035e-014
lhumerus -25.3467 -49.023 86.5422
lradius 80.9627
lwrist -16.1037
lhand -55.6394 32.2219
lfingers 7.12502
lthumb -27.9915 60.1546
rfemur -83.7907 -38.8446 37.3092
rtibia 116.235
rfoot -23.0992 6.23025
rtoes 2.88289
lfemur -76.1571 22.766 -23.218
ltibia 110.066
lfoot -26.781 -7.37589
ltoes -14.6709
313
root -8.97946 11.9024 9.92207 6.88786 -44.0199 -2.54267
lowerback 33.9284 5.83441 0.812893
upperback 10.3998 7.19382 2.39532
thorax -5.93494 3.16488 -0.388084
lowerneck -11.4291 -5.87092 -15.9737
upperneck 31.9622 -6.4651 5.41381
head 13.4607 -4.09242 3.90571
rclavicle -2.62396e-014 -4.77083e-015
rhumerus 15.046 13.8847 -83.1293
rradius 28.5332
rwrist 5.28793
rhand -28.0942 2.11581
rfingers 7.12502
rthumb -1.47688 -27.8588
lclavicle -2.62396e-014 -4.77083e-015
lhumerus -25.4302 -48.9498 86.5239
lradius 81.6194
lwrist -16.4415
lhand -55.4374 32.6507
lfingers 7.12502
lthumb -27.7984 60.6148
rfemur -84.4891 -38.9832 37.4394
rtibia 117.721
rfoot -23.3635 6.28541
rtoes 2.03407
lfemur -76.9097 23.5681 -23.2691
ltibia 111.73
lfoot -27.3304 -7.15883
ltoes -14.4841
314
root -8.9833 11.7392 9.93628 6.68315 -44.2909 -2.72308
lowerback 34.5737 5.97592 1.04859
upperback 10.4804 7.42738 2.43723
thorax -6.05819 3.26289 -0.581594
lowerneck -11.558 -5.99021 -15.9803
upperneck 31.9506 -6.61241 5.42669
head 13.5053 -4.15062 3.88537
rclavicle -1.01778e-013 2.70347e-014
rhumerus 15.3693 13.4335 -83.3642
rradius 27.7104
rwrist 5.7784
rhand -30.2768 2.45724
rfingers 7.12502
rthumb -3.58478 -27.4924
lclavicle -1.01778e-013 2.70347e-014
lhumerus -25.58 -48.6544 86.6274
lradius 82.2422
lwrist -16.6866
lhand -55.5777 33.1
lfingers 7.12502
lthumb -27.9326 61.0424
rfemur -85.1297 -39.1569 37.4661
rtibia 119.211
rfoot -23.7021 6.4143
rtoes 1.69092
lfemur -77.617 24.388 -23.4132
ltibia 113.33
lfoot -27.6956 -6.99279
ltoes -13.9128
315
root -8.98679 11.5747 9.94367 6.64137 -44.5485 -2.91714
lowerback 35.0459 6.11952 1.21463
upperback 10.5485 7.64756 2.49675
thorax -6.13931 3.35626 -0.707312
lowerneck -11.7252 -6.09487 -15.9605
upperneck 31.9336 -6.70968 5.35245
head 13.5451 -4.19374 3.83207
rclavicle 3.49861e-014 -5.40694e-014
rhumerus 15.6966 12.7969 -83.6933
rradius 26.8155
rwrist 7.16362
rhand -32.4876 2.83463
rfingers 7.12502
rthumb -5.71948 -27.0682
lclavicle 3.49861e-014 -5.40694e-014
lhumerus -25.7095 -48.1965 86.7108
lradius 82.9375
lwrist -17.0016
lhand -55.8867 33.0067
lfingers 7.12502
lthumb -28.2279 60.9006
rfemur -86.0587 -39.2514 37.6791
rtibia 120.724
rfoot -23.964 6.60644
rtoes 1.2155
lfemur -78.6041 25.2083 -23.5971
ltibia 114.912
lfoot -27.8756 -7.08603
ltoes -13.3007
316
root -8.99092 11.4132 9.95174 6.66334 -44.8074 -3.14334
lowerback 35.4076 6.23974 1.41007
upperback 10.6929 7.84106 2.54322
thorax -6.09015 3.44038 -0.84023
lowerneck -11.9638 -6.19163 -15.9573
upperneck 31.8006 -6.78288 5.31135
head 13.5483 -4.21927 3.79501
rclavicle 9.54166e-015 2.38542e-015
rhumerus 16.1201 11.9337 -84.1587
rradius 25.9727
rwrist 9.04939
rhand -34.5974 3.15154
rfingers 7.12502
rthumb -7.75624 -26.6862
lclavicle 9.54166e-015 2.38542e-015
lhumerus -25.6393 -47.7169 86.5813
lradius 83.6404
lwrist -17.1567
lhand -56.2267 32.0523
lfingers 7.12502
lthumb -28.5528 59.8921
rfemur -87.0117 -39.3116 37.971
rtibia 122.193
rfoot -24.1708 6.72768
rtoes -0.194513
lfemur -79.631 26.148 -23.8451
ltibia 116.482
lfoot -28.2823 -6.919
ltoes -13.9533
317
root -8.99075 11.2521 9.96301 6.48866 -45.0562 -3.12945
lowerback 35.8933 6.3182 1.4071
upperback 10.724 7.91959 2.54896
thorax -6.09846 3.46596 -0.856125
lowerneck -12.1162 -6.21368 -16.0773
upperneck 31.6258 -6.76553 5.37131
head 13.5123 -4.20932 3.83547
rclavicle -6.12257e-014 1.43125e-014
rhumerus 16.5503 11.3223 -84.6122
rradius 25.2139
rwrist 10.4081
rhand -36.3906 3.08947
rfingers 7.12502
rthumb -9.48666 -26.677
lclavicle -6.12257e-014 1.43125e-014
lhumerus -25.7573 -47.0397 86.534
lradius 84.4263
lwrist -17.184
lhand -56.4874 31.8802
lfingers 7.12502
lthumb -28.8019 59.6778
rfemur -87.9951 -39.5829 38.0436
rtibia 123.666
rfoot -24.3204 7.27713
rtoes 0.871764
lfemur -80.526 27.0868 -24.346
ltibia 117.986
lfoot -28.8299 -6.58467
ltoes -14.8776
318
root -8.98579 11.0887 9.96924 6.25749 -45.2519 -2.84941
lowerback 36.3206 6.44616 1.1455
upperback 10.6917 7.98563 2.57644
thorax -6.31723 3.48173 -0.749776
lowerneck -12.1814 -6.22033 -16.1551
upperneck 31.5346 -6.73228 5.35192
head 13.4867 -4.20173 3.84269
rclavicle 3.33958e-014 -6.12257e-014
rhumerus 16.794 10.8904 -84.9959
rradius 24.4967
rwrist 10.8767
rhand -37.9887 2.84902
rfingers 7.12502
rthumb -11.0283 -26.8413
lclavicle 3.33958e-014 -6.12257e-014
lhumerus -26.216 -46.3578 86.7571
lradius 85.3517
lwrist -17.2509
lhand -56.6991 32.7984
lfingers 7.12502
lthumb -29.0042 60.5614
rfemur -89.3954 -39.9672 38.1433
rtibia 125.161
rfoot -24.3292 7.99031
rtoes 3.27997
lfemur -81.6091 27.8077 -25.1086
ltibia 119.421
lfoot -29.25 -6.19132
ltoes -15.8823
319
root -8.98052 10.9301 9.96675 6.19222 -45.4026 -2.71717
lowerback 36.7688 6.59244 1.14293
upperback 10.6865 8.16006 2.62245
thorax -6.48254 3.55144 -0.793687
lowerneck -12.3744 -6.36721 -16.449
upperneck 31.4186 -6.87358 5.51056
head 13.5216 -4.26828 3.92577
rclavicle -9.78021e-014 5.88403e-014
rhumerus 17.1732 9.82961 -85.399
rradius 23.7237
rwrist 11.7518
rhand -39.3523 2.57236
rfingers 7.12502
rthumb -12.3433 -27.0433
lclavicle -9.78021e-014 5.88403e-014
lhumerus -26.4072 -45.9962 86.8687
lradius 86.2561
lwrist -17.2954
lhand -56.8394 32.9467
lfingers 7.12502
lthumb -29.1381 60.6866
rfemur -90.9041 -40.1513 38.5007
rtibia 126.584
rfoot -24.2999 8.17793
rtoes 3.53735
lfemur -82.8793 28.4839 -25.7237
ltibia 120.826
lfoot -29.5249 -6.17822
ltoes -16.1026
320
root -8.97632 10.7924 9.97248 5.92204 -45.7469 -2.8179
lowerback 37.5899 6.75772 1.51681
upperback 10.8024 8.46259 2.61914
thorax -6.58062 3.67813 -1.14013
lowerneck -12.5382 -6.59807 -16.795
upperneck 31.1462 -7.15937 5.79878
head 13.5115 -4.38126 4.0427
rclavicle 1.00983e-013 -8.18993e-014
rhumerus 17.7575 8.49506 -85.782
rradius 22.9733
rwrist 12.7635
rhand -40.3398 1.78554
rfingers 7.12502
rthumb -13.2953 -27.7704
lclavicle 1.00983e-013 -8.18993e-014
lhumerus -26.3833 -45.8451 86.798
lradius 87.1275
lwrist -17.3419
lhand -57.0353 32.5125
lfingers 7.12502
lthumb -29.3252 60.2198
rfemur -91.5282 -40.3775 38.6584
rtibia 127.749
rfoot -24.3613 7.94364
rtoes 1.08421
lfemur -83.4838 29.6086 -25.8519
ltibia 122.112
lfoot -29.899 -6.68746
ltoes -15.3403
321
root -8.96461 10.6385 9.96979 5.9846 -45.6995 -2.85835
lowerback 38.0378 6.66642 1.95373
upperback 10.7828 8.49328 2.53296
thorax -6.68086 3.68924 -1.4886
lowerneck -12.5235 -6.72311 -16.8848
upperneck 30.7942 -7.33846 5.9216
head 13.3929 -4.44044 4.06956
rclavicle 2.62396e-014 -2.3059e-014
rhumerus 18.249 7.47935 -86.3622
rradius 22.2619
rwrist 13.1802
rhand -40.7789 0.346966
rfingers 7.12502
rthumb -13.7185 -29.1808
lclavicle 2.62396e-014 -2.3059e-014
lhumerus -26.5664 -45.5216 86.6594
lradius 87.9281
lwrist -17.4871
lhand -57.2544 32.3936
lfingers 7.12502
lthumb -29.5343 60.0642
rfemur -93.0167 -40.7995 39.3229
rtibia 128.945
rfoot -24.297 7.55853
rtoes -1.41413
lfemur -84.8456 30.0468 -26.1384
ltibia 123.453
lfoot -30.1316 -6.80486
ltoes -15.7991
322
root -8.95725 10.5135 9.98696 5.61911 -46.2163 -2.93717
lowerback 38.8306 6.74674 2.21459
upperback 10.8361 8.65067 2.40548
thorax -6.82192 3.7479 -1.85526
lowerneck -12.5561 -6.7714 -17.0288
upperneck 30.5405 -7.40071 6.07937
head 13.315 -4.4551 4.14035
rclavicle -6.75868e-014 4.53229e-014
rhumerus 18.5694 6.36452 -87.2034
rradius 21.6566
rwrist 14.0921
rhand -41.8407 -0.748464
rfingers 7.12502
rthumb -14.7417 -30.2043
lclavicle -6.75868e-014 4.53229e-014
lhumerus -26.9163 -45.0955 86.4858
lradius 88.7693
lwrist -17.5642
lhand -57.3331 32.6149
lfingers 7.12502
lthumb -29.6095 60.2722
rfemur -93.4281 -41.0259 39.2382
rtibia 129.977
rfoot -24.4812 7.7301
rtoes -3.07942
lfemur -85.285 31.352 -26.1183
ltibia 124.668
lfoot -30.6235 -7.70599
ltoes -14.6171
323
root -8.95518 10.3949 9.98513 5.13797 -47.1318 -3.00847
lowerback 39.8864 7.19546 1.98486
upperback 10.8953 9.08033 2.42324
thorax -7.11155 3.91255 -1.94946
lowerneck -12.7317 -6.83248 -17.1441
upperneck 30.3206 -7.42249 6.11268
head 13.2709 -4.4619 4.16
rclavicle 9.06458e-014 1.51076e-014
rhumerus 18.8352 5.82395 -87.6081
rradius 21.3123
rwrist 14.3127
rhand -42.5581 -2.22616
rfingers 7.12502
rthumb -15.4328 -31.63
lclavicle 9.06458e-014 1.51076e-014
lhumerus -27.2746 -44.6899 86.4078
lradius 89.7229
lwrist -17.5167
lhand -57.7278 33.0606
lfingers 7.12502
lthumb -29.9862 60.6504
rfemur -93.5574 -40.5345 38.9206
rtibia 131.011
rfoot -24.5347 7.90856
rtoes -4.59175
lfemur -85.4929 33.3775 -25.9669
ltibia 125.791
lfoot -31.0854 -9.29761
ltoes -12.903
324
root -8.94432 10.2615 9.99203 4.8188 -47.3313 -2.84805
lowerback 40.5403 7.26182 2.05756
upperback 10.9471 9.1682 2.42041
thorax -7.24301 3.93618 -2.0601
lowerneck -13.0861 -6.93953 -17.1881
upperneck 30.2306 -7.45395 6.00335
head 13.3129 -4.48238 4.1071
rclavicle -2.06736e-014 4.69132e-014
rhumerus 19.1823 5.19246 -87.9156
rradius 20.9831
rwrist 14.722
rhand -42.9273 -3.44431
rfingers 7.12502
rthumb -15.7884 -32.8204
lclavicle -2.06736e-014 4.69132e-014
lhumerus -27.6025 -44.2724 86.3582
lradius 90.6821
lwrist -17.534
lhand -57.8151 33.2905
lfingers 7.12502
lthumb -30.0694 60.8652
rfemur -94.7242 -40.94 38.9668
rtibia 132.199
rfoot -24.3527 8.45184
rtoes -5.47099
lfemur -86.2819 34.2055 -26.1736
ltibia 126.914
lfoot -31.1317 -10.4157
ltoes -12.2682
